<svg width="26" height="56" viewBox="0 0 26 56" fill="none" xmlns="http://www.w3.org/2000/svg">
<path d="M14.7159 1.6323L14.7158 1.63224C13.7551 0.789253 12.2449 0.789253 11.2842 1.63224L11.2841 1.6323L10.5109 2.3109H10.5062V2.31496L1.77791 9.97502C1.77791 9.97502 1.77791 9.97503 1.77791 9.97503C0.740696 10.8853 0.740698 12.4219 1.77791 13.3321C2.73866 14.1753 4.24886 14.1753 5.20961 13.3321L10.5062 8.68382V54V55H11.5062H14.4938H15.4938V54V8.68382L20.7904 13.3321C21.7511 14.1753 23.2613 14.1753 24.2221 13.3321C25.2593 12.4219 25.2593 10.8853 24.2221 9.97502L15.4938 2.31496V2.3109H15.4891L14.7159 1.6323Z" fill="#88C4E8" stroke="#88C4E8" stroke-width="2"/>
</svg>
