<svg width="24" height="24" viewBox="0 0 24 24" fill="none" xmlns="http://www.w3.org/2000/svg">
<g clip-path="url(#clip0)">
<path d="M11.5305 0C5.17078 0 0 5.31664 0 11.8557C0 18.3949 5.17078 23.7115 11.5305 23.7115C17.8902 23.7115 23.0609 18.3949 23.0609 11.8557C23.0609 5.31664 17.8902 0 11.5305 0ZM11.5305 22.1149C6.03173 22.1149 1.55278 17.5149 1.55278 11.8557C1.55278 6.19661 6.03173 1.59658 11.5305 1.59658C17.0292 1.59658 21.5083 6.20187 21.5083 11.8557C21.5083 17.5096 17.0292 22.1149 11.5305 22.1149Z" fill="#FEFEFE"/>
<path d="M11.8944 6.72348C13.2319 6.72348 14.4874 7.26617 15.4356 8.25148C15.8045 8.63616 16.404 8.63616 16.7782 8.26204C17.1522 7.8827 17.1522 7.26617 16.7885 6.88156C15.4816 5.52214 13.7443 4.77393 11.8944 4.77393C8.08154 4.77393 4.97601 8.00386 4.97601 11.9715C4.97601 15.9391 8.08154 19.169 11.8944 19.169C13.6111 19.169 15.2561 18.5104 16.5271 17.3143C16.9114 16.9507 16.9421 16.3343 16.5886 15.9391C16.235 15.5438 15.6353 15.5123 15.251 15.8759C14.3285 16.74 13.1396 17.2194 11.8994 17.2194C9.13212 17.2194 6.87729 14.8642 6.87729 11.9715C6.87729 9.07879 9.12698 6.72348 11.8944 6.72348Z" fill="#FEFEFE"/>
</g>
<defs>
<clipPath id="clip0">
<rect width="23.3143" height="24" fill="white"/>
</clipPath>
</defs>
</svg>
