<svg width="40" height="41" viewBox="0 0 40 41" fill="none" xmlns="http://www.w3.org/2000/svg">
<path d="M18.7971 0.0366135C16.2191 0.188805 13.6548 0.857533 11.335 1.97362C5.70389 4.68542 1.64079 9.9015 0.400182 16.0123C-0.471471 20.2968 0.0911835 24.7749 1.98668 28.6951C4.7031 34.317 9.90996 38.3663 16.0115 39.6023C20.296 40.4739 24.7742 39.9113 28.6943 38.0158C32.7436 36.0603 36.0595 32.7443 38.015 28.6951C38.9466 26.7673 39.56 24.7058 39.8321 22.5889C40.3348 18.7149 39.7029 14.7948 38.015 11.3081C36.0595 7.25888 32.7436 3.94291 28.6943 1.98745C25.6274 0.502415 22.2053 -0.170925 18.7971 0.0366135ZM26.9556 10.9254L26.9418 13.1068L24.8203 13.1298C22.4221 13.1575 22.5697 13.1298 22.3114 13.5357C22.0485 13.9554 22.0301 14.0984 22.0301 15.814V17.3728H24.4975H26.9648V19.4251V21.4774H24.4975H22.0301V27.6113V33.7451H19.6549H17.2798V27.6113V21.4774H15.1583H13.0368V19.4251V17.3728H15.1583H17.2798V15.8924C17.2798 14.2828 17.3259 13.7847 17.5381 13.0514C18.1192 11.0499 19.6688 9.44031 21.4905 8.95606C22.1546 8.7762 22.4405 8.76236 24.788 8.75314L26.9648 8.74853L26.9556 10.9254Z" fill="#FEFEFE"/>
</svg>
