<svg width="40" height="41" viewBox="0 0 40 41" fill="none" xmlns="http://www.w3.org/2000/svg">
<path d="M19.9946 13.3329C16.3222 13.3329 13.3252 16.33 13.3252 20.0024C13.3252 23.6749 16.3222 26.672 19.9946 26.672C23.6671 26.672 26.664 23.6749 26.664 20.0024C26.664 16.33 23.6671 13.3329 19.9946 13.3329ZM39.9978 20.0024C39.9978 17.2406 40.0229 14.5037 39.8678 11.7469C39.7127 8.54471 38.982 5.70277 36.6407 3.3612C34.294 1.01461 31.4571 0.289121 28.2551 0.134017C25.4933 -0.0210873 22.7564 0.00392962 19.9996 0.00392962C17.2378 0.00392962 14.501 -0.0210873 11.7442 0.134017C8.54211 0.289121 5.70022 1.01961 3.35869 3.3612C1.01215 5.70777 0.286676 8.54471 0.131574 11.7469C-0.0235282 14.5087 0.00148819 17.2456 0.00148819 20.0024C0.00148819 22.7593 -0.0235282 25.5011 0.131574 28.258C0.286676 31.4602 1.01716 34.302 3.35869 36.6438C5.70524 38.9902 8.54211 39.7158 11.7442 39.8709C14.506 40.026 17.2428 40.0009 19.9996 40.0009C22.7613 40.0009 25.4982 40.026 28.2551 39.8709C31.4571 39.7158 34.2991 38.9853 36.6407 36.6438C38.9871 34.2971 39.7127 31.4602 39.8678 28.258C40.0278 25.5011 39.9978 22.7642 39.9978 20.0024ZM19.9946 30.2644C14.3159 30.2644 9.73289 25.6813 9.73289 20.0024C9.73289 14.3236 14.3159 9.74051 19.9946 9.74051C25.6733 9.74051 30.2564 14.3236 30.2564 20.0024C30.2564 25.6813 25.6733 30.2644 19.9946 30.2644ZM30.6767 11.7168C29.3507 11.7168 28.28 10.6461 28.28 9.32022C28.28 7.99433 29.3507 6.9236 30.6767 6.9236C32.0024 6.9236 33.0731 7.99433 33.0731 9.32022C33.0736 9.63506 33.012 9.94689 32.8916 10.2378C32.7713 10.5288 32.5949 10.7932 32.3722 11.0158C32.1496 11.2384 31.8851 11.4149 31.5942 11.5352C31.3033 11.6555 30.9916 11.7172 30.6767 11.7168Z" fill="#FEFEFE"/>
</svg>
