<svg width="40" height="41" viewBox="0 0 40 41" fill="none" xmlns="http://www.w3.org/2000/svg">
<path fill-rule="evenodd" clip-rule="evenodd" d="M35.644 0.713282C34.0694 1.42903 16.319 9.73165 1.86093 16.4596C0.715744 17.0322 0 18.1774 0 19.3226C0 20.4678 0.858893 21.3267 1.86093 21.4699C2.71983 21.613 11.3088 22.9013 11.3088 22.9013L13.7423 37.2162L15.0306 30.9177L13.1697 21.4699L30.6338 8.58646L16.319 24.3328L21.3292 30.0588C21.6155 30.3451 27.7709 37.5025 28.2003 37.932C28.9161 38.6477 30.0612 40.0792 30.6338 40.0792C31.6359 40.0792 32.6379 38.6477 33.0674 36.5005C33.4968 34.4964 36.3598 20.611 39.9385 2.14477C40.368 0.140687 38.507 -0.718206 35.644 0.713282Z" fill="#FEFEFE"/>
</svg>
