<svg width="42" height="42" viewBox="0 0 42 42" fill="none" xmlns="http://www.w3.org/2000/svg">
<path d="M29.8333 12.1667C27.3958 9.72925 24.2083 8.50008 21 8.50008V21.0001L12.1667 29.8334C17.0417 34.7084 24.9583 34.7084 29.8542 29.8334C34.7292 24.9584 34.7292 17.0417 29.8333 12.1667ZM21 0.166748C9.49999 0.166748 0.166656 9.50008 0.166656 21.0001C0.166656 32.5001 9.49999 41.8334 21 41.8334C32.5 41.8334 41.8333 32.5001 41.8333 21.0001C41.8333 9.50008 32.5 0.166748 21 0.166748ZM21 37.6668C11.7917 37.6668 4.33332 30.2084 4.33332 21.0001C4.33332 11.7917 11.7917 4.33342 21 4.33342C30.2083 4.33342 37.6667 11.7917 37.6667 21.0001C37.6667 30.2084 30.2083 37.6668 21 37.6668Z" fill="#75AFD7"/>
</svg>
