<svg width="40" height="41" viewBox="0 0 40 41" fill="none" xmlns="http://www.w3.org/2000/svg">
<path d="M18.5705 0.0523338C13.7958 0.407211 9.44045 2.37056 6.02072 5.71194C1.52253 10.0995 -0.634391 16.3122 0.162931 22.5525C1.15843 30.3552 6.66134 36.8536 14.2198 39.1534C20.0637 40.9324 26.5668 39.877 31.5212 36.3513C37.6094 32.0144 40.7757 24.82 39.8355 17.4552C38.84 9.65246 33.3371 3.15406 25.7787 0.854263C23.5296 0.167553 20.9071 -0.122803 18.5705 0.0523338ZM20.096 12.4454C21.1192 12.5468 21.6307 12.7081 21.8612 13.0077C21.9211 13.0906 22.0179 13.2934 22.0732 13.4593C22.193 13.8096 22.1976 14.2106 22.1239 17.2063C22.0778 19.0775 22.1054 19.6536 22.2575 20.0684C22.4373 20.5431 22.8336 20.7597 23.1839 20.5799C23.5019 20.414 24.2439 19.5983 24.7278 18.8747C25.8478 17.2155 26.5299 15.9297 27.3503 13.9433C27.5162 13.5515 27.7374 13.2934 27.9678 13.2335C28.06 13.2059 29.3643 13.1828 30.9682 13.1782L33.8026 13.169L34.0422 13.2704C34.351 13.4086 34.4708 13.5884 34.4708 13.9156C34.4708 14.5378 33.821 15.8144 32.7057 17.3768C32.5536 17.5934 31.9775 18.3585 31.429 19.0821C30.2169 20.6767 29.9542 21.05 29.7699 21.4372C29.5394 21.9257 29.5947 22.3267 29.9588 22.8014C30.0648 22.935 30.5995 23.4743 31.1479 23.9997C32.6826 25.4699 33.3786 26.2442 33.9454 27.0922C34.351 27.7051 34.5077 28.1568 34.4432 28.5439C34.4109 28.7559 34.1989 29.0094 33.9593 29.1339C33.6735 29.2767 33.2357 29.3044 30.8253 29.3367L28.5439 29.3689L28.1752 29.2445C27.235 28.9311 26.6082 28.4103 25.1841 26.7603C24.396 25.8478 23.8107 25.4007 23.4051 25.3961C23.0318 25.3961 22.5571 25.8939 22.3543 26.5115C22.216 26.9263 22.1653 27.2443 22.1239 27.9632C22.0732 28.8113 21.9718 29.0094 21.451 29.226C21.262 29.309 18.9115 29.3367 18.2893 29.2721C17.0404 29.1339 15.8836 28.7421 14.736 28.0646C13.0722 27.0876 12.0536 26.2119 10.9614 24.82C9.06253 22.3958 7.76745 20.3311 6.19585 17.2155C5.58749 16.0034 4.87313 14.4364 4.75791 14.0631C4.64269 13.6759 4.8086 13.3579 5.18652 13.2381C5.31557 13.1966 6.03454 13.1736 7.69371 13.1505L10.0212 13.1275L10.2931 13.2289C10.7217 13.3948 10.9014 13.6068 11.1918 14.312C11.4407 14.9065 12.7818 17.598 13.2012 18.3493C13.6298 19.1097 14.0861 19.7457 14.4779 20.1237C14.9618 20.5984 15.1784 20.7136 15.5195 20.6859C15.8098 20.6583 15.8882 20.5938 16.0679 20.202C16.5057 19.2572 16.5749 16.0633 16.1831 14.8097C15.9573 14.0953 15.6209 13.8234 14.6899 13.6252C14.5286 13.5884 14.5286 13.5331 14.676 13.3165C15.0355 12.8003 15.6762 12.5514 16.8975 12.45C17.5658 12.3947 19.5476 12.3901 20.096 12.4454Z" fill="#FEFEFE"/>
</svg>
